# xmcd
#
# Track frame offsets:
#  150
#  3032
#  18039
#  52876
#  78166
#  89984
#  110603
#  129881
#  143326
#  156244
#  181677
#  208405
#  230063
#  237743
#  254066
#  282297
#  300863
#
# Disc length: 4392 seconds
#
# Revision: 0
# Processed by: cddbd v1.5.1PL2 Copyright (c) Steve Scherf et al.
# Submitted via: Collectorz.com_Music_Collector 6.11
#
DISCID=db112611
DTITLE=Lyle Lovett - Vienna - 29 July 2003 [CD2)
DYEAR=2003
DGENRE=Country
TTITLE0=Intro
TTITLE1=If I Had A Boat
TTITLE2=The Truck Song
TTITLE3=If I Were The Man You Wanted
TTITLE4=You'e Got A Friend In Me
TTITLE5=Give Back My Heart
TTITLE6=My Baby Don't Tolerate Me
TTITLE7=Election Day
TTITLE8=What Do You Do/The Glory Of Love
TTITLE9=Wild Women Don't Get The Blues
TTITLE10=Church
TTITLE11=I'm Gonna Wait
TTITLE12=Here I Am (Reprise)
TTITLE13=I Want A Little Sugar In My Bowl
TTITLE14=Here I Am
TTITLE15=Smile
TTITLE16=You Can't Resist
EXTD=
EXTT0=
EXTT1=
EXTT2=
EXTT3=
EXTT4=
EXTT5=
EXTT6=
EXTT7=
EXTT8=
EXTT9=
EXTT10=
EXTT11=
EXTT12=
EXTT13=
EXTT14=
EXTT15=
EXTT16=
PLAYORDER=
